HIERARCHY
ROOT Hips
{
	OFFSET 0.000000 0.000000 0.000000
	CHANNELS 6 Xposition Yposition Zposition Zrotation Yrotation Xrotation 
	JOINT LHipJoint
	{
		OFFSET 0.000000 0.000000 0.000000
		CHANNELS 3 Zrotation Yrotation Xrotation
		JOINT LeftUpLeg
		{
			OFFSET 1.363060 -1.794630 0.839290
			CHANNELS 3 Zrotation Yrotation Xrotation
			JOINT LeftLeg
			{
				OFFSET 2.448110 -6.726130 0.000000
				CHANNELS 3 Zrotation Yrotation Xrotation
				JOINT LeftFoot
				{
					OFFSET 2.562200 -7.039590 0.000000
					CHANNELS 3 Zrotation Yrotation Xrotation
					JOINT LeftToeBase
					{
						OFFSET 0.157640 -0.433110 2.322550
						CHANNELS 3 Zrotation Yrotation Xrotation
						End Site
						{
							OFFSET 0.000000 0.000000 0.000000
						}
					}
				}
			}
		}
	}
	JOINT RHipJoint
	{
		OFFSET 0.000000 0.000000 0.000000
		CHANNELS 3 Zrotation Yrotation Xrotation
		JOINT RightUpLeg
		{
			OFFSET -1.305520 -1.794630 0.839290
			CHANNELS 3 Zrotation Yrotation Xrotation
			JOINT RightLeg
			{
				OFFSET -2.542530 -6.985550 0.000000
				CHANNELS 3 Zrotation Yrotation Xrotation
				JOINT RightFoot
				{
					OFFSET -2.568260 -7.056230 0.000000
					CHANNELS 3 Zrotation Yrotation Xrotation
					JOINT RightToeBase
					{
						OFFSET -0.164730 -0.452590 2.363150
						CHANNELS 3 Zrotation Yrotation Xrotation
						End Site
						{
							OFFSET 0.000000 0.000000 0.000000
						}
					}
				}
			}
		}
	}
	JOINT LowerBack
	{
		OFFSET 0.000000 0.000000 0.000000
		CHANNELS 3 Zrotation Yrotation Xrotation
		JOINT Spine
		{
			OFFSET 0.028270 2.035590 -0.193380
			CHANNELS 3 Zrotation Yrotation Xrotation
			JOINT Spine1
			{
				OFFSET 0.056720 2.048850 -0.042750
				CHANNELS 3 Zrotation Yrotation Xrotation
				JOINT Neck
				{
					OFFSET 0.000000 0.000000 0.000000
					CHANNELS 3 Zrotation Yrotation Xrotation
					JOINT Neck1
					{
						OFFSET -0.054170 1.746240 0.172020
						CHANNELS 3 Zrotation Yrotation Xrotation
						JOINT Head
						{
							OFFSET 0.104070 1.761360 -0.123970
							CHANNELS 3 Zrotation Yrotation Xrotation
							End Site
							{
								OFFSET 0.000000 0.000000 0.000000
							}
						}
					}
				}
				JOINT LeftShoulder
				{
					OFFSET 0.000000 0.000000 0.000000
					CHANNELS 3 Zrotation Yrotation Xrotation
					JOINT LeftArm
					{
						OFFSET 3.362410 1.200890 -0.311210
						CHANNELS 3 Zrotation Yrotation Xrotation
						JOINT LeftForeArm
						{
							OFFSET 4.983000 -0.000000 -0.000000
							CHANNELS 3 Zrotation Yrotation Xrotation
							JOINT LeftHand
							{
								OFFSET 3.483560 -0.000000 -0.000000
								CHANNELS 3 Zrotation Yrotation Xrotation
								JOINT LeftFingerBase
								{
									OFFSET 0.000000 0.000000 0.000000
									CHANNELS 3 Zrotation Yrotation Xrotation
									JOINT LeftHandIndex1
									{
										OFFSET 0.715260 -0.000000 -0.000000
										CHANNELS 3 Zrotation Yrotation Xrotation
										End Site
										{
											OFFSET 0.000000 0.000000 0.000000
										}
									}
								}
								JOINT LThumb
								{
									OFFSET 0.000000 0.000000 0.000000
									CHANNELS 3 Zrotation Yrotation Xrotation
									End Site
									{
										OFFSET 0.000000 0.000000 0.000000
									}
								}
							}
						}
					}
				}
				JOINT RightShoulder
				{
					OFFSET 0.000000 0.000000 0.000000
					CHANNELS 3 Zrotation Yrotation Xrotation
					JOINT RightArm
					{
						OFFSET -3.136600 1.374050 -0.404650
						CHANNELS 3 Zrotation Yrotation Xrotation
						JOINT RightForeArm
						{
							OFFSET -5.241900 -0.000000 -0.000000
							CHANNELS 3 Zrotation Yrotation Xrotation
							JOINT RightHand
							{
								OFFSET -3.444170 -0.000000 -0.000000
								CHANNELS 3 Zrotation Yrotation Xrotation
								JOINT RightFingerBase
								{
									OFFSET 0.000000 0.000000 0.000000
									CHANNELS 3 Zrotation Yrotation Xrotation
									JOINT RightHandIndex1
									{
										OFFSET -0.622530 -0.000000 -0.000000
										CHANNELS 3 Zrotation Yrotation Xrotation
										End Site
										{
											OFFSET 0.000000 0.000000 0.000000
										}
									}
								}
								JOINT RThumb
								{
									OFFSET 0.000000 0.000000 0.000000
									CHANNELS 3 Zrotation Yrotation Xrotation
									End Site
									{
										OFFSET 0.000000 0.000000 0.000000
									}
								}
							}
						}
					}
				}
			}
		}
	}
}
MOTION
Frames: 5
Frame Time: 0.008333
5.058826 18.568685 0.577874 3.822817 79.755362 7.991567 1.305725 2.802536 3.401204 -11.493955 -18.173145 -14.613702 5.644210 11.772767 38.876187 3.082445 -10.646357 -35.369248 1.035500 -6.472200 -18.161000 -5.769145 -3.556888 3.841498 23.857412 18.387902 -18.931322 -7.111268 -12.726744 44.175446 -1.975713 18.026778 -33.060076 -0.023100 0.981500 -2.697800 -1.973036 -5.325855 4.887272 -4.664396 -7.474506 22.761786 4.912805 -3.457812 -12.290230 -7.972493 -15.263658 -20.992010 12.824855 -20.522083 36.694768 0.475100 -6.247100 16.438900 3.466471 -6.221722 -0.329987 -85.532640 -7.829715 48.749125 59.652298 -50.688163 -33.744870 1.137756 0.058071 -35.255257 29.734785 21.946068 12.053000 -7.125000 0.000000 0.000000 -0.289000 55.688900 -0.075800 0.883743 10.367833 0.759463 82.141319 -13.632306 41.418286 -37.983800 38.173638 -15.246149 -0.372418 -0.193746 -6.371667 -36.286666 13.310115 -9.634100 7.125000 0.000000 0.000000 -5.736100 -13.455500 -4.265800 
5.027242 18.571676 0.838216 5.305863 79.866681 9.506083 1.257180 2.805441 3.424843 -11.252989 -18.122073 -15.087554 5.677881 11.843202 39.129722 2.684954 -11.100023 -33.526353 1.099000 -6.661400 -18.716000 -5.749066 -3.595603 3.899095 23.596457 18.463358 -19.396683 -7.208434 -12.847662 44.661736 -2.019237 17.913150 -33.253066 -0.024100 1.002200 -2.755000 -2.146608 -5.197962 5.033137 -4.803498 -7.296653 23.059288 5.034084 -3.365875 -12.326292 -8.003213 -15.383562 -21.022843 12.973208 -20.697645 36.423501 0.498100 -6.320100 16.392900 3.506669 -6.207838 -0.333656 -85.414162 -7.680936 48.502922 60.164716 -50.853068 -34.184063 1.142470 0.070156 -35.506552 29.828116 22.065565 12.153000 -7.125000 0.000000 0.000000 -0.227800 55.839300 -0.060600 0.861924 10.361986 0.721316 82.485317 -13.504173 41.487551 -37.339664 37.704275 -14.788756 -0.369775 -0.207796 -6.136065 -35.971214 13.489639 -9.659600 7.125000 0.000000 0.000000 -5.498800 -13.276000 -4.108500 
4.993133 18.570554 1.097157 6.822714 79.887871 11.030368 1.207879 2.809133 3.443093 -11.040763 -18.036268 -15.557625 5.729389 11.943752 39.494057 2.306627 -11.791572 -31.812983 1.146600 -6.799300 -19.122200 -5.729138 -3.627044 3.950179 23.336495 18.575050 -19.852558 -7.311402 -12.972664 45.165971 -2.058170 17.744429 -33.398728 -0.029500 1.109400 -3.049800 -2.301074 -5.095788 5.300136 -4.995590 -7.140388 23.278889 5.171454 -3.277300 -12.433728 -8.102232 -15.471062 -21.078093 13.150788 -20.819352 36.237188 0.553600 -6.368800 16.386600 3.548596 -6.184560 -0.327530 -85.250646 -7.410154 48.146573 60.791583 -51.053460 -34.724158 1.147720 0.084250 -35.798778 29.727407 22.205510 12.166100 -7.125000 0.000000 0.000000 -0.385000 55.966100 -0.103600 0.853882 10.349097 0.691439 82.742439 -13.391329 41.776297 -36.776233 37.286242 -14.398439 -0.364691 -0.220638 -6.165828 -35.699946 13.632088 -9.671600 7.125000 0.000000 0.000000 -5.298500 -13.137800 -3.972900 
4.958839 18.561770 1.353948 8.283050 79.856751 12.497140 1.153917 2.814103 3.468285 -10.780008 -18.148279 -15.969162 5.792204 12.060659 39.914628 1.876819 -12.566371 -29.803006 1.199600 -6.949200 -19.565100 -5.711186 -3.656798 4.007958 23.078005 18.733340 -20.320697 -7.418808 -13.094923 45.670303 -2.175184 17.340062 -33.828702 -0.051200 1.460000 -4.015500 -2.400213 -4.957803 5.517381 -5.268759 -6.917464 23.575612 5.290138 -3.168514 -12.501406 -7.987646 -15.521427 -21.187074 13.187816 -20.909345 35.986495 0.533300 -6.406200 16.338900 3.603932 -6.171166 -0.322331 -85.017597 -7.195512 47.959444 61.393726 -51.236277 -35.244249 1.155258 0.099196 -35.861365 30.001503 22.294484 12.337400 -7.125000 0.000000 0.000000 -0.124100 56.121800 -0.033900 0.836388 10.335347 0.650844 83.094458 -13.198287 41.958180 -36.145858 36.814185 -13.965281 -0.352649 -0.236496 -5.716504 -35.795430 13.302529 -9.502500 7.125000 0.000000 0.000000 -5.413900 -13.484600 -4.020600 
4.923703 18.552052 1.610179 9.690535 79.768886 13.847284 1.097331 2.819540 3.492432 -10.545715 -18.256930 -16.404819 5.887196 12.210228 40.460525 1.479931 -13.179894 -27.830698 1.351700 -7.360100 -20.786600 -5.694471 -3.674272 4.054372 22.799975 18.956017 -20.681975 -7.526472 -13.222418 46.203647 -2.214748 17.298771 -34.023715 -0.057500 1.547200 -4.256000 -2.508280 -4.827231 5.865675 -5.533144 -6.701570 23.829665 5.415668 -3.054506 -12.642781 -8.004801 -15.602724 -21.222264 13.334161 -21.037207 35.749344 0.566100 -6.458800 16.301300 3.658750 -6.147894 -0.315393 -84.803983 -6.925464 47.638258 62.049706 -51.436604 -35.814311 1.160227 0.114001 -36.118064 29.845980 22.399597 12.304600 -7.125000 0.000000 0.000000 -0.333500 56.195400 -0.091600 0.822718 10.317458 0.616277 83.348824 -13.031861 42.195569 -35.609438 36.405814 -13.602305 -0.348185 -0.248564 -5.478210 -35.610311 13.384366 -9.505700 7.125000 0.000000 0.000000 -5.279600 -13.400700 -3.929300 
